<svg id="Layer_3" enable-background="new 0 0 64 64" height="512" viewBox="0 0 64 64" width="512" xmlns="http://www.w3.org/2000/svg"><g><path d="m18 37h12c.552 0 1-.448 1-1v-6c0-1.654-1.346-3-3-3h-4-4c-1.654 0-3 1.346-3 3v6c0 .552.448 1 1 1zm1-7c0-.551.449-1 1-1h8c.551 0 1 .449 1 1v5h-1v-4h-2v4h-4v-4h-2v4h-1z"/><path d="m28 23v-2c0-2.206-1.794-4-4-4s-4 1.794-4 4v2c0 2.206 1.794 4 4 4s4-1.794 4-4zm-2 0c0 1.103-.897 2-2 2s-2-.897-2-2v-2c0-1.103.897-2 2-2s2 .897 2 2z"/><path d="m9 40v4c0 .552.448 1 1 1h4c.552 0 1-.448 1-1v-4c0-.552-.448-1-1-1h-4c-.552 0-1 .448-1 1zm2 1h2v2h-2z"/><path d="m14 47h-4c-.552 0-1 .448-1 1v4c0 .552.448 1 1 1h4c.552 0 1-.448 1-1v-4c0-.552-.448-1-1-1zm-1 4h-2v-2h2z"/><path d="m17 39h22v2h-22z"/><path d="m17 43h22v2h-22z"/><path d="m17 47h22v2h-22z"/><path d="m17 51h22v2h-22z"/><path d="m14 6h2v2h-2z"/><path d="m32 6h2v2h-2z"/><path d="m58 15h-11v-9c0-.552-.448-1-1-1h-8v-3c0-.552-.448-1-1-1h-26c-.552 0-1 .448-1 1v3h-8c-.552 0-1 .448-1 1v56c0 .552.448 1 1 1h44c.552 0 1-.448 1-1v-27h11c2.757 0 5-2.243 5-5v-10c0-2.757-2.243-5-5-5zm-13-8v8h-2v-5c0-.552-.448-1-1-1h-4v-2zm-33-4h24v8h-24zm25 10c.552 0 1-.448 1-1v-1h3v4.101c-2.279.465-4 2.484-4 4.899v10c0 2.414 1.721 4.434 4 4.899v22.101h-34v-46h3v1c0 .552.448 1 1 1zm8 48h-42v-54h7v2h-4c-.552 0-1 .448-1 1v48c0 .552.448 1 1 1h36c.552 0 1-.448 1-1v-23h2zm16-31c0 1.654-1.346 3-3 3h-16c-1.654 0-3-1.346-3-3v-10c0-1.654 1.346-3 3-3h16c1.654 0 3 1.346 3 3z"/><path d="m48 26.586-2.293-2.293-1.414 1.414 3 3c.195.195.451.293.707.293s.512-.098.707-.293l7-7-1.414-1.414z"/></g></svg>